<svg width="16" height="16" viewBox="0 0 16 16" fill="none" xmlns="http://www.w3.org/2000/svg">
<path d="M7.875 7.875C8.91929 7.875 9.92081 7.46016 10.6592 6.72173C11.3977 5.98331 11.8125 4.98179 11.8125 3.9375C11.8125 2.89321 11.3977 1.89169 10.6592 1.15327C9.92081 0.414843 8.91929 0 7.875 0C6.83071 0 5.82919 0.414843 5.09077 1.15327C4.35234 1.89169 3.9375 2.89321 3.9375 3.9375C3.9375 4.98179 4.35234 5.98331 5.09077 6.72173C5.82919 7.46016 6.83071 7.875 7.875 7.875ZM10.5 3.9375C10.5 4.63369 10.2234 5.30137 9.73115 5.79366C9.23887 6.28594 8.57119 6.5625 7.875 6.5625C7.17881 6.5625 6.51113 6.28594 6.01884 5.79366C5.52656 5.30137 5.25 4.63369 5.25 3.9375C5.25 3.24131 5.52656 2.57363 6.01884 2.08134C6.51113 1.58906 7.17881 1.3125 7.875 1.3125C8.57119 1.3125 9.23887 1.58906 9.73115 2.08134C10.2234 2.57363 10.5 3.24131 10.5 3.9375ZM15.75 14.4375C15.75 15.75 14.4375 15.75 14.4375 15.75H1.3125C1.3125 15.75 0 15.75 0 14.4375C0 13.125 1.3125 9.1875 7.875 9.1875C14.4375 9.1875 15.75 13.125 15.75 14.4375ZM14.4375 14.4323C14.4362 14.1094 14.2354 13.1381 13.3455 12.2483C12.4897 11.3925 10.8793 10.5 7.875 10.5C4.86938 10.5 3.26025 11.3925 2.4045 12.2483C1.51463 13.1381 1.31512 14.1094 1.3125 14.4323H14.4375Z" fill="#6C6C84"/>
<path d="M10.5 3.9375C10.5 4.63369 10.2234 5.30137 9.73115 5.79366C9.23887 6.28594 8.57119 6.5625 7.875 6.5625C7.17881 6.5625 6.51113 6.28594 6.01884 5.79366C5.52656 5.30137 5.25 4.63369 5.25 3.9375C5.25 3.24131 5.52656 2.57363 6.01884 2.08134C6.51113 1.58906 7.17881 1.3125 7.875 1.3125C8.57119 1.3125 9.23887 1.58906 9.73115 2.08134C10.2234 2.57363 10.5 3.24131 10.5 3.9375Z" fill="#6C6C84"/>
<path d="M14.4375 14.4323C14.4362 14.1094 14.2354 13.1381 13.3455 12.2483C12.4897 11.3925 10.8793 10.5 7.875 10.5C4.86938 10.5 3.26025 11.3925 2.4045 12.2483C1.51463 13.1381 1.31512 14.1094 1.3125 14.4323H14.4375Z" fill="#6C6C84"/>
</svg>
